<svg xmlns="http://www.w3.org/2000/svg" viewBox="0 0 1440 900" width="1440" height="900" font-family="Inter, 'Pretendard Variable', system-ui, sans-serif">
  <rect width="1440" height="900" fill="#ffffff"/>
  <!-- top bar -->
  <rect x="0" y="0" width="1440" height="64" fill="#ffffff"/>
  <line x1="0" y1="64" x2="1440" y2="64" stroke="#e5e8eb" stroke-width="1"/>
  <!-- app mark -->
  <rect x="24" y="20" width="28" height="28" rx="6" fill="#0064ff"/>
  <text x="38" y="40" text-anchor="middle" font-size="16" font-weight="700" fill="#ffffff" font-family="Fraunces, Georgia, 'Times New Roman', serif">C</text>
  <text x="62" y="38" font-size="14" font-weight="700" fill="#191f28">C-Quant</text>
  <text x="362" y="38" font-size="14" font-weight="500" fill="#8b95a1">Command</text><text x="454" y="38" font-size="14" font-weight="500" fill="#8b95a1">Drivers</text><text x="546" y="38" font-size="14" font-weight="500" fill="#8b95a1">Desk</text><text x="638" y="38" font-size="14" font-weight="600" fill="#191f28">Sources</text><rect x="632" y="48" width="75" height="2" fill="#0064ff"/>
  <rect x="1220" y="20" width="52" height="28" rx="14" fill="#ffffff" stroke="#e5e8eb" stroke-width="1"/>
        <text x="1246" y="38" text-anchor="middle" font-size="12" font-weight="600" fill="#4e5968">EU</text><rect x="1284" y="20" width="52" height="28" rx="14" fill="#e8f2ff" stroke="#0064ff" stroke-width="1"/>
        <text x="1310" y="38" text-anchor="middle" font-size="12" font-weight="600" fill="#0064ff">KR</text><rect x="1348" y="20" width="52" height="28" rx="14" fill="#ffffff" stroke="#e5e8eb" stroke-width="1"/>
        <text x="1374" y="38" text-anchor="middle" font-size="12" font-weight="600" fill="#4e5968">CN</text>
  <rect x="24" y="88" width="1392" height="56" rx="14" fill="#ffffff" stroke="#e5e8eb"/><text x="44" y="122" font-size="13" fill="#8b95a1">🔍  Filter sources by jurisdiction · access method · status</text><rect x="540" y="100" width="78" height="32" rx="16" fill="#0064ff" stroke="#0064ff"/>
      <text x="579" y="120" text-anchor="middle" font-size="12" font-weight="600" fill="#ffffff">All</text><rect x="630" y="100" width="78" height="32" rx="16" fill="#ffffff" stroke="#e5e8eb"/>
      <text x="669" y="120" text-anchor="middle" font-size="12" font-weight="600" fill="#4e5968">EU</text><rect x="720" y="100" width="78" height="32" rx="16" fill="#ffffff" stroke="#e5e8eb"/>
      <text x="759" y="120" text-anchor="middle" font-size="12" font-weight="600" fill="#4e5968">KR</text><rect x="810" y="100" width="78" height="32" rx="16" fill="#ffffff" stroke="#e5e8eb"/>
      <text x="849" y="120" text-anchor="middle" font-size="12" font-weight="600" fill="#4e5968">CN</text><rect x="900" y="100" width="78" height="32" rx="16" fill="#ffffff" stroke="#e5e8eb"/>
      <text x="939" y="120" text-anchor="middle" font-size="12" font-weight="600" fill="#4e5968">official</text><rect x="990" y="100" width="78" height="32" rx="16" fill="#ffffff" stroke="#e5e8eb"/>
      <text x="1029" y="120" text-anchor="middle" font-size="12" font-weight="600" fill="#4e5968">proxy</text><rect x="1080" y="100" width="78" height="32" rx="16" fill="#ffffff" stroke="#e5e8eb"/>
      <text x="1119" y="120" text-anchor="middle" font-size="12" font-weight="600" fill="#4e5968">public-data</text><rect x="24" y="168" width="453.3333333333333" height="200" rx="14" fill="#ffffff" stroke="#e5e8eb"/><rect x="40" y="184" width="32" height="22" rx="11" fill="#191f28"/>
      <text x="56" y="200" text-anchor="middle" font-size="11" font-weight="700" fill="#ffffff" letter-spacing="0.04em">EU</text><rect x="412.8333333333333" y="184" width="48.5" height="22" rx="11" fill="#dcfce7"/>
      <text x="437.0833333333333" y="200" text-anchor="middle" font-size="10" font-weight="700" fill="#22c55e">fresh</text><text x="40" y="238" font-size="17" font-weight="700" fill="#191f28" font-family="Fraunces, Georgia, 'Times New Roman', serif">EEX EU ETS auctions</text><text x="40" y="260" font-size="11" font-weight="600" fill="#0064ff" letter-spacing="0.04em" font-family="'JetBrains Mono', 'Consolas', monospace">OFFICIAL WEB FLOW</text><text x="40" y="292" font-size="12" fill="#4e5968">EU 1차 auction anchor + workbook · 14m ago</text><line x1="40" y1="318" x2="461.3333333333333" y2="318" stroke="#e5e8eb"/><text x="40" y="344" font-size="11" font-weight="600" fill="#0064ff">Open original →</text><text x="461.3333333333333" y="344" text-anchor="end" font-size="11" font-weight="600" fill="#8b95a1">Audit</text><rect x="493.3333333333333" y="168" width="453.3333333333333" height="200" rx="14" fill="#ffffff" stroke="#e5e8eb"/><rect x="509.3333333333333" y="184" width="32" height="22" rx="11" fill="#191f28"/>
      <text x="525.3333333333333" y="200" text-anchor="middle" font-size="11" font-weight="700" fill="#ffffff" letter-spacing="0.04em">KR</text><rect x="882.1666666666666" y="184" width="48.5" height="22" rx="11" fill="#fff3e0"/>
      <text x="906.4166666666666" y="200" text-anchor="middle" font-size="10" font-weight="700" fill="#ff9f2d">watch</text><text x="509.3333333333333" y="238" font-size="17" font-weight="700" fill="#191f28" font-family="Fraunces, Georgia, 'Times New Roman', serif">KRX ETS Information Platform</text><text x="509.3333333333333" y="260" font-size="11" font-weight="600" fill="#0064ff" letter-spacing="0.04em" font-family="'JetBrains Mono', 'Consolas', monospace">OFFICIAL WEB FLOW</text><text x="509.3333333333333" y="292" font-size="12" fill="#4e5968">KAU close + KOC + 정책 게시 · 2h ago</text><line x1="509.3333333333333" y1="318" x2="930.6666666666666" y2="318" stroke="#e5e8eb"/><text x="509.3333333333333" y="344" font-size="11" font-weight="600" fill="#0064ff">Open original →</text><text x="930.6666666666666" y="344" text-anchor="end" font-size="11" font-weight="600" fill="#8b95a1">Audit</text><rect x="962.6666666666666" y="168" width="453.3333333333333" height="200" rx="14" fill="#ffffff" stroke="#e5e8eb"/><rect x="978.6666666666666" y="184" width="32" height="22" rx="11" fill="#191f28"/>
      <text x="994.6666666666666" y="200" text-anchor="middle" font-size="11" font-weight="700" fill="#ffffff" letter-spacing="0.04em">CN</text><rect x="1351.5" y="184" width="48.5" height="22" rx="11" fill="#fde7e9"/>
      <text x="1375.75" y="200" text-anchor="middle" font-size="10" font-weight="700" fill="#f04452">stale</text><text x="978.6666666666666" y="238" font-size="17" font-weight="700" fill="#191f28" font-family="Fraunces, Georgia, 'Times New Roman', serif">MEE 탄소시장 release feed</text><text x="978.6666666666666" y="260" font-size="11" font-weight="600" fill="#0064ff" letter-spacing="0.04em" font-family="'JetBrains Mono', 'Consolas', monospace">OFFICIAL WEB FLOW</text><text x="978.6666666666666" y="292" font-size="12" fill="#4e5968">정책 bulletin · 8h ago — bulletin-first 모드</text><line x1="978.6666666666666" y1="318" x2="1400" y2="318" stroke="#e5e8eb"/><text x="978.6666666666666" y="344" font-size="11" font-weight="600" fill="#0064ff">Open original →</text><text x="1400" y="344" text-anchor="end" font-size="11" font-weight="600" fill="#8b95a1">Audit</text><rect x="24" y="384" width="453.3333333333333" height="200" rx="14" fill="#ffffff" stroke="#e5e8eb"/><rect x="40" y="400" width="32" height="22" rx="11" fill="#191f28"/>
      <text x="56" y="416" text-anchor="middle" font-size="11" font-weight="700" fill="#ffffff" letter-spacing="0.04em">KR</text><rect x="412.8333333333333" y="400" width="48.5" height="22" rx="11" fill="#dcfce7"/>
      <text x="437.0833333333333" y="416" text-anchor="middle" font-size="10" font-weight="700" fill="#22c55e">fresh</text><text x="40" y="454" font-size="17" font-weight="700" fill="#191f28" font-family="Fraunces, Georgia, 'Times New Roman', serif">KRX Open API (sample key)</text><text x="40" y="476" font-size="11" font-weight="600" fill="#0064ff" letter-spacing="0.04em" font-family="'JetBrains Mono', 'Consolas', monospace">PUBLIC API</text><text x="40" y="508" font-size="12" fill="#4e5968">ets_bydd_trd 일별 거래 · 14m ago</text><line x1="40" y1="534" x2="461.3333333333333" y2="534" stroke="#e5e8eb"/><text x="40" y="560" font-size="11" font-weight="600" fill="#0064ff">Open original →</text><text x="461.3333333333333" y="560" text-anchor="end" font-size="11" font-weight="600" fill="#8b95a1">Audit</text><rect x="493.3333333333333" y="384" width="453.3333333333333" height="200" rx="14" fill="#ffffff" stroke="#e5e8eb"/><rect x="509.3333333333333" y="400" width="32" height="22" rx="11" fill="#191f28"/>
      <text x="525.3333333333333" y="416" text-anchor="middle" font-size="11" font-weight="700" fill="#ffffff" letter-spacing="0.04em">EU</text><rect x="882.1666666666666" y="400" width="48.5" height="22" rx="11" fill="#dcfce7"/>
      <text x="906.4166666666666" y="416" text-anchor="middle" font-size="10" font-weight="700" fill="#22c55e">fresh</text><text x="509.3333333333333" y="454" font-size="17" font-weight="700" fill="#191f28" font-family="Fraunces, Georgia, 'Times New Roman', serif">ICE EUA December</text><text x="509.3333333333333" y="476" font-size="11" font-weight="600" fill="#0064ff" letter-spacing="0.04em" font-family="'JetBrains Mono', 'Consolas', monospace">PUBLIC CHART FEED</text><text x="509.3333333333333" y="508" font-size="12" fill="#4e5968">Yahoo chart endpoint · 2m ago</text><line x1="509.3333333333333" y1="534" x2="930.6666666666666" y2="534" stroke="#e5e8eb"/><text x="509.3333333333333" y="560" font-size="11" font-weight="600" fill="#0064ff">Open original →</text><text x="930.6666666666666" y="560" text-anchor="end" font-size="11" font-weight="600" fill="#8b95a1">Audit</text><rect x="962.6666666666666" y="384" width="453.3333333333333" height="200" rx="14" fill="#ffffff" stroke="#e5e8eb"/><rect x="978.6666666666666" y="400" width="64" height="22" rx="11" fill="#191f28"/>
      <text x="1010.6666666666666" y="416" text-anchor="middle" font-size="11" font-weight="700" fill="#ffffff" letter-spacing="0.04em">GLOBAL</text><rect x="1351.5" y="400" width="48.5" height="22" rx="11" fill="#dcfce7"/>
      <text x="1375.75" y="416" text-anchor="middle" font-size="10" font-weight="700" fill="#22c55e">fresh</text><text x="978.6666666666666" y="454" font-size="17" font-weight="700" fill="#191f28" font-family="Fraunces, Georgia, 'Times New Roman', serif">KraneShares KRBN</text><text x="978.6666666666666" y="476" font-size="11" font-weight="600" fill="#0064ff" letter-spacing="0.04em" font-family="'JetBrains Mono', 'Consolas', monospace">PUBLIC CHART FEED</text><text x="978.6666666666666" y="508" font-size="12" fill="#4e5968">ETF 추이 · 2m ago</text><line x1="978.6666666666666" y1="534" x2="1400" y2="534" stroke="#e5e8eb"/><text x="978.6666666666666" y="560" font-size="11" font-weight="600" fill="#0064ff">Open original →</text><text x="1400" y="560" text-anchor="end" font-size="11" font-weight="600" fill="#8b95a1">Audit</text><rect x="24" y="600" width="453.3333333333333" height="200" rx="14" fill="#ffffff" stroke="#e5e8eb"/><rect x="40" y="616" width="32" height="22" rx="11" fill="#191f28"/>
      <text x="56" y="632" text-anchor="middle" font-size="11" font-weight="700" fill="#ffffff" letter-spacing="0.04em">US</text><rect x="412.8333333333333" y="616" width="48.5" height="22" rx="11" fill="#dcfce7"/>
      <text x="437.0833333333333" y="632" text-anchor="middle" font-size="10" font-weight="700" fill="#22c55e">fresh</text><text x="40" y="670" font-size="17" font-weight="700" fill="#191f28" font-family="Fraunces, Georgia, 'Times New Roman', serif">FRED economic data</text><text x="40" y="692" font-size="11" font-weight="600" fill="#0064ff" letter-spacing="0.04em" font-family="'JetBrains Mono', 'Consolas', monospace">PUBLIC API</text><text x="40" y="724" font-size="12" fill="#4e5968">St. Louis Fed series · API key gate · 1d ago</text><line x1="40" y1="750" x2="461.3333333333333" y2="750" stroke="#e5e8eb"/><text x="40" y="776" font-size="11" font-weight="600" fill="#0064ff">Open original →</text><text x="461.3333333333333" y="776" text-anchor="end" font-size="11" font-weight="600" fill="#8b95a1">Audit</text><rect x="493.3333333333333" y="600" width="453.3333333333333" height="200" rx="14" fill="#ffffff" stroke="#e5e8eb"/><rect x="509.3333333333333" y="616" width="88" height="22" rx="11" fill="#191f28"/>
      <text x="553.3333333333333" y="632" text-anchor="middle" font-size="11" font-weight="700" fill="#ffffff" letter-spacing="0.04em">EU/GLOBAL</text><rect x="823.6666666666666" y="616" width="107" height="22" rx="11" fill="#f2f4f6"/>
      <text x="877.1666666666666" y="632" text-anchor="middle" font-size="10" font-weight="700" fill="#8b95a1">not-configured</text><text x="509.3333333333333" y="670" font-size="17" font-weight="700" fill="#191f28" font-family="Fraunces, Georgia, 'Times New Roman', serif">Refinitiv Data Platform</text><text x="509.3333333333333" y="692" font-size="11" font-weight="600" fill="#0064ff" letter-spacing="0.04em" font-family="'JetBrains Mono', 'Consolas', monospace">LICENSE-GATED</text><text x="509.3333333333333" y="724" font-size="12" fill="#4e5968">credentials missing — never fabricates prices</text><line x1="509.3333333333333" y1="750" x2="930.6666666666666" y2="750" stroke="#e5e8eb"/><text x="509.3333333333333" y="776" font-size="11" font-weight="600" fill="#0064ff">Open original →</text><text x="930.6666666666666" y="776" text-anchor="end" font-size="11" font-weight="600" fill="#8b95a1">Audit</text><rect x="962.6666666666666" y="600" width="453.3333333333333" height="200" rx="14" fill="#ffffff" stroke="#e5e8eb"/><rect x="978.6666666666666" y="616" width="64" height="22" rx="11" fill="#191f28"/>
      <text x="1010.6666666666666" y="632" text-anchor="middle" font-size="11" font-weight="700" fill="#ffffff" letter-spacing="0.04em">GLOBAL</text><rect x="1351.5" y="616" width="48.5" height="22" rx="11" fill="#dcfce7"/>
      <text x="1375.75" y="632" text-anchor="middle" font-size="10" font-weight="700" fill="#22c55e">fresh</text><text x="978.6666666666666" y="670" font-size="17" font-weight="700" fill="#191f28" font-family="Fraunces, Georgia, 'Times New Roman', serif">ICAP Carbon Action</text><text x="978.6666666666666" y="692" font-size="11" font-weight="600" fill="#0064ff" letter-spacing="0.04em" font-family="'JetBrains Mono', 'Consolas', monospace">PUBLIC WEB</text><text x="978.6666666666666" y="724" font-size="12" fill="#4e5968">관할 비교 dashboard · 1d ago</text><line x1="978.6666666666666" y1="750" x2="1400" y2="750" stroke="#e5e8eb"/><text x="978.6666666666666" y="776" font-size="11" font-weight="600" fill="#0064ff">Open original →</text><text x="1400" y="776" text-anchor="end" font-size="11" font-weight="600" fill="#8b95a1">Audit</text><line x1="0" y1="864" x2="1440" y2="864" stroke="#e5e8eb"/>
    <text x="24" y="886" font-size="11" fill="#b0b8c1">C-Quant · v1.3 · light theme · 1440×900 baseline · figma-spec mockup</text>
    <text x="1416" y="886" text-anchor="end" font-size="11" fill="#b0b8c1" font-family="'JetBrains Mono', 'Consolas', monospace">SVG mockup — Figma import OK</text></svg>